# xmcd CD database file
# Copyright (C) 1993-1998 Ti Kan
# 
# Track frame offsets:
#     150
#     12740
#     26412
#     38227
#     52597
#     68332
#     82560
#     89915
#     103860
#     114382
#     128862
#     137367
#     150107
#     160082
# 
# Disc length: 2321 seconds
# 
# Revision: 1
# Processed by: cddbd v1.4b41PL1 Copyright (c) Steve Scherf et al.
# Submitted via: DiscPlay 4.0.4
# 
DISCID=9a090f0e
DTITLE=Various Artist - Country Music 3
DYEAR=1900
DGENRE=
TTITLE0=Any Old Arms Won t Do (Willie Nelson)
TTITLE1=Honky-Tonk Heartache (David Speegle)
TTITLE2=Jambalaya (Frankie Laine)
TTITLE3=Like Strangers (The Wilsons)
TTITLE4=Tulsa Turnaround (Kenny Rogers)
TTITLE5=Hello I m A Truck (Ferlin Husky)
TTITLE6=Rugged But Right (George Jones)
TTITLE7=I Don t Claim To Be An Angel (Kitty Wells)
TTITLE8=Face To The Wall (Faron Young)
TTITLE9=Bringin  The House Down (Alan Borders)
TTITLE10=Slipping Around (Jim Wakely)
TTITLE11=Ida Red (Likes The Boogie) (Bob Wills)
TTITLE12=I Miss You So (Mickey Gilley)
TTITLE13=Indian Reservation (Don Fardon)
EXTD=
EXTT0=
EXTT1=
EXTT2=
EXTT3=
EXTT4=
EXTT5=
EXTT6=
EXTT7=
EXTT8=
EXTT9=
EXTT10=
EXTT11=
EXTT12=
EXTT13=
PLAYORDER=
